<svg id="SvgjsSvg1312" width="1807.781252861023" height="786.28125" xmlns="http://www.w3.org/2000/svg" version="1.1" xmlns:xlink="http://www.w3.org/1999/xlink" xmlns:svgjs="http://svgjs.com/svgjs"><defs id="SvgjsDefs1313"><pattern id="SvgjsPattern1320" x="0" y="0" width="188" height="135" patternUnits="userSpaceOnUse"><image id="SvgjsImage1321" xlink:href="https://cdn.processon.com/6381dc061efad454984f25c9?e=1669458454&amp;token=trhI0BY8QfVrIGn9nENop6JAc6l5nZuxhjQ62UfM:QTPUWrDJKWujQEdWRQ0sRnip5Aw=" width="188" height="135" preserveAspectRatio="none" crossOrigin="anonymous" x="0" y="0"></image></pattern><pattern id="SvgjsPattern1334" x="0" y="0" width="188" height="135" patternUnits="userSpaceOnUse"><image id="SvgjsImage1335" xlink:href="https://cdn.processon.com/6381dc061efad454984f25c9?e=1669458454&amp;token=trhI0BY8QfVrIGn9nENop6JAc6l5nZuxhjQ62UfM:QTPUWrDJKWujQEdWRQ0sRnip5Aw=" width="188" height="135" preserveAspectRatio="none" crossOrigin="anonymous" x="0" y="0"></image></pattern><pattern id="SvgjsPattern1340" x="0" y="0" width="196" height="21" patternUnits="userSpaceOnUse"><image id="SvgjsImage1341" xlink:href="http://cdn.processon.com/6382e851e0b34d37c46db600?e=1669527138&amp;token=trhI0BY8QfVrIGn9nENop6JAc6l5nZuxhjQ62UfM:9nrnibRX6m6yaQmcbem000j6ZHQ=" width="346" height="379" preserveAspectRatio="none" crossOrigin="anonymous" x="0" y="-184"></image></pattern><pattern id="SvgjsPattern1348" x="0" y="0" width="131" height="119" patternUnits="userSpaceOnUse"><image id="SvgjsImage1349" xlink:href="https://cdn.processon.com/6381dd281e08536d5f470ebd?e=1669458744&amp;token=trhI0BY8QfVrIGn9nENop6JAc6l5nZuxhjQ62UfM:IBsZ_l_BSNlxZTolIJIvz3_0NJk=" width="131" height="119" preserveAspectRatio="none" crossOrigin="anonymous" x="0" y="0"></image></pattern><pattern id="SvgjsPattern1354" x="0" y="0" width="196" height="21" patternUnits="userSpaceOnUse"><image id="SvgjsImage1355" xlink:href="http://cdn.processon.com/6382e851e0b34d37c46db600?e=1669527138&amp;token=trhI0BY8QfVrIGn9nENop6JAc6l5nZuxhjQ62UfM:9nrnibRX6m6yaQmcbem000j6ZHQ=" width="346" height="379" preserveAspectRatio="none" crossOrigin="anonymous" x="0" y="-100"></image></pattern><marker id="SvgjsMarker1358" markerWidth="14" markerHeight="10" refX="10" refY="5" viewBox="0 0 14 10" orient="auto" markerUnits="userSpaceOnUse" stroke-dasharray="0,0"><path id="SvgjsPath1359" d="M0,0 L14,5 L0,10 L0,0" fill="#323232" stroke="#323232" stroke-width="1"></path></marker><marker id="SvgjsMarker1362" markerWidth="14" markerHeight="10" refX="10" refY="5" viewBox="0 0 14 10" orient="auto" markerUnits="userSpaceOnUse" stroke-dasharray="0,0"><path id="SvgjsPath1363" d="M0,0 L14,5 L0,10 L0,0" fill="#323232" stroke="#323232" stroke-width="1"></path></marker><pattern id="SvgjsPattern1370" x="0" y="0" width="188" height="135" patternUnits="userSpaceOnUse"><image id="SvgjsImage1371" xlink:href="https://cdn.processon.com/6381dc061efad454984f25c9?e=1669458454&amp;token=trhI0BY8QfVrIGn9nENop6JAc6l5nZuxhjQ62UfM:QTPUWrDJKWujQEdWRQ0sRnip5Aw=" width="188" height="135" preserveAspectRatio="none" crossOrigin="anonymous" x="0" y="0"></image></pattern><pattern id="SvgjsPattern1376" x="0" y="0" width="272" height="21" patternUnits="userSpaceOnUse"><image id="SvgjsImage1377" xlink:href="http://cdn.processon.com/6382e851e0b34d37c46db600?e=1669527138&amp;token=trhI0BY8QfVrIGn9nENop6JAc6l5nZuxhjQ62UfM:9nrnibRX6m6yaQmcbem000j6ZHQ=" width="346" height="379" preserveAspectRatio="none" crossOrigin="anonymous" x="0" y="-163"></image></pattern><marker id="SvgjsMarker1380" markerWidth="14" markerHeight="10" refX="10" refY="5" viewBox="0 0 14 10" orient="auto" markerUnits="userSpaceOnUse" stroke-dasharray="0,0"><path id="SvgjsPath1381" d="M0,0 L14,5 L0,10 L0,0" fill="#fc8f47" stroke="#fc8f47" stroke-width="1"></path></marker><pattern id="SvgjsPattern1394" x="0" y="0" width="131" height="119" patternUnits="userSpaceOnUse"><image id="SvgjsImage1395" xlink:href="https://cdn.processon.com/6381dd281e08536d5f470ebd?e=1669458744&amp;token=trhI0BY8QfVrIGn9nENop6JAc6l5nZuxhjQ62UfM:IBsZ_l_BSNlxZTolIJIvz3_0NJk=" width="131" height="119" preserveAspectRatio="none" crossOrigin="anonymous" x="0" y="0"></image></pattern><pattern id="SvgjsPattern1400" x="0" y="0" width="236" height="21" patternUnits="userSpaceOnUse"><image id="SvgjsImage1401" xlink:href="http://cdn.processon.com/6382e851e0b34d37c46db600?e=1669527138&amp;token=trhI0BY8QfVrIGn9nENop6JAc6l5nZuxhjQ62UfM:9nrnibRX6m6yaQmcbem000j6ZHQ=" width="346" height="379" preserveAspectRatio="none" crossOrigin="anonymous" x="0" y="-358"></image></pattern><pattern id="SvgjsPattern1406" x="0" y="0" width="272" height="21" patternUnits="userSpaceOnUse"><image id="SvgjsImage1407" xlink:href="http://cdn.processon.com/6382e851e0b34d37c46db600?e=1669527138&amp;token=trhI0BY8QfVrIGn9nENop6JAc6l5nZuxhjQ62UfM:9nrnibRX6m6yaQmcbem000j6ZHQ=" width="346" height="379" preserveAspectRatio="none" crossOrigin="anonymous" x="0" y="-142"></image></pattern><pattern id="SvgjsPattern1412" x="0" y="0" width="346" height="21" patternUnits="userSpaceOnUse"><image id="SvgjsImage1413" xlink:href="http://cdn.processon.com/6382e851e0b34d37c46db600?e=1669527138&amp;token=trhI0BY8QfVrIGn9nENop6JAc6l5nZuxhjQ62UfM:9nrnibRX6m6yaQmcbem000j6ZHQ=" width="346" height="379" preserveAspectRatio="none" crossOrigin="anonymous" x="0" y="-58"></image></pattern><marker id="SvgjsMarker1416" markerWidth="14" markerHeight="10" refX="10" refY="5" viewBox="0 0 14 10" orient="auto" markerUnits="userSpaceOnUse" stroke-dasharray="0,0"><path id="SvgjsPath1417" d="M0,0 L14,5 L0,10 L0,0" fill="#fc8f47" stroke="#fc8f47" stroke-width="1"></path></marker><marker id="SvgjsMarker1420" markerWidth="14" markerHeight="10" refX="10" refY="5" viewBox="0 0 14 10" orient="auto" markerUnits="userSpaceOnUse" stroke-dasharray="0,0"><path id="SvgjsPath1421" d="M0,0 L14,5 L0,10 L0,0" fill="#323232" stroke="#323232" stroke-width="1"></path></marker><pattern id="SvgjsPattern1428" x="0" y="0" width="173" height="21" patternUnits="userSpaceOnUse"><image id="SvgjsImage1429" xlink:href="http://cdn.processon.com/6382e851e0b34d37c46db600?e=1669527138&amp;token=trhI0BY8QfVrIGn9nENop6JAc6l5nZuxhjQ62UfM:9nrnibRX6m6yaQmcbem000j6ZHQ=" width="346" height="379" preserveAspectRatio="none" crossOrigin="anonymous" x="0" y="-313"></image></pattern><marker id="SvgjsMarker1438" markerWidth="14" markerHeight="10" refX="10" refY="5" viewBox="0 0 14 10" orient="auto" markerUnits="userSpaceOnUse" stroke-dasharray="0,0"><path id="SvgjsPath1439" d="M0,0 L14,5 L0,10 L0,0" fill="#4473c4" stroke="#4473c4" stroke-width="1"></path></marker><pattern id="SvgjsPattern1446" x="0" y="0" width="173" height="21" patternUnits="userSpaceOnUse"><image id="SvgjsImage1447" xlink:href="http://cdn.processon.com/6382e851e0b34d37c46db600?e=1669527138&amp;token=trhI0BY8QfVrIGn9nENop6JAc6l5nZuxhjQ62UfM:9nrnibRX6m6yaQmcbem000j6ZHQ=" width="346" height="379" preserveAspectRatio="none" crossOrigin="anonymous" x="0" y="-205"></image></pattern><pattern id="SvgjsPattern1452" x="0" y="0" width="139" height="21" patternUnits="userSpaceOnUse"><image id="SvgjsImage1453" xlink:href="http://cdn.processon.com/6382e851e0b34d37c46db600?e=1669527138&amp;token=trhI0BY8QfVrIGn9nENop6JAc6l5nZuxhjQ62UfM:9nrnibRX6m6yaQmcbem000j6ZHQ=" width="346" height="379" preserveAspectRatio="none" crossOrigin="anonymous" x="0" y="0"></image></pattern><pattern id="SvgjsPattern1460" x="0" y="0" width="196" height="21" patternUnits="userSpaceOnUse"><image id="SvgjsImage1461" xlink:href="http://cdn.processon.com/6382e851e0b34d37c46db600?e=1669527138&amp;token=trhI0BY8QfVrIGn9nENop6JAc6l5nZuxhjQ62UfM:9nrnibRX6m6yaQmcbem000j6ZHQ=" width="346" height="379" preserveAspectRatio="none" crossOrigin="anonymous" x="0" y="-292"></image></pattern><pattern id="SvgjsPattern1466" x="0" y="0" width="203" height="21" patternUnits="userSpaceOnUse"><image id="SvgjsImage1467" xlink:href="http://cdn.processon.com/6382e851e0b34d37c46db600?e=1669527138&amp;token=trhI0BY8QfVrIGn9nENop6JAc6l5nZuxhjQ62UfM:9nrnibRX6m6yaQmcbem000j6ZHQ=" width="346" height="379" preserveAspectRatio="none" crossOrigin="anonymous" x="0" y="-271"></image></pattern><pattern id="SvgjsPattern1480" x="0" y="0" width="188" height="135" patternUnits="userSpaceOnUse"><image id="SvgjsImage1481" xlink:href="https://cdn.processon.com/6381dc061efad454984f25c9?e=1669458454&amp;token=trhI0BY8QfVrIGn9nENop6JAc6l5nZuxhjQ62UfM:QTPUWrDJKWujQEdWRQ0sRnip5Aw=" width="188" height="135" preserveAspectRatio="none" crossOrigin="anonymous" x="0" y="0"></image></pattern><marker id="SvgjsMarker1490" markerWidth="14" markerHeight="10" refX="4" refY="5" viewBox="0 0 14 10" orient="auto" markerUnits="userSpaceOnUse" stroke-dasharray="0,0"><path id="SvgjsPath1491" d="M14,0 L0,5 L14,10 L14,0" fill="#323232" stroke="#323232" stroke-width="1"></path></marker><marker id="SvgjsMarker1492" markerWidth="14" markerHeight="10" refX="10" refY="5" viewBox="0 0 14 10" orient="auto" markerUnits="userSpaceOnUse" stroke-dasharray="0,0"><path id="SvgjsPath1493" d="M0,0 L14,5 L0,10 L0,0" fill="#323232" stroke="#323232" stroke-width="1"></path></marker><marker id="SvgjsMarker1496" markerWidth="16" markerHeight="12" refX="5" refY="6" viewBox="0 0 16 12" orient="auto" markerUnits="userSpaceOnUse" stroke-dasharray="0,0"><path id="SvgjsPath1497" d="M16,0 L0,6 L16,12 L16,0" fill="#323232" stroke="#323232" stroke-width="1"></path></marker><marker id="SvgjsMarker1498" markerWidth="16" markerHeight="12" refX="11" refY="6" viewBox="0 0 16 12" orient="auto" markerUnits="userSpaceOnUse" stroke-dasharray="0,0"><path id="SvgjsPath1499" d="M0,0 L16,6 L0,12 L0,0" fill="#323232" stroke="#323232" stroke-width="1"></path></marker><pattern id="SvgjsPattern1511" x="0" y="0" width="236" height="21" patternUnits="userSpaceOnUse"><image id="SvgjsImage1512" xlink:href="http://cdn.processon.com/6382e851e0b34d37c46db600?e=1669527138&amp;token=trhI0BY8QfVrIGn9nENop6JAc6l5nZuxhjQ62UfM:9nrnibRX6m6yaQmcbem000j6ZHQ=" width="346" height="379" preserveAspectRatio="none" crossOrigin="anonymous" x="0" y="-79"></image></pattern><marker id="SvgjsMarker1515" markerWidth="14" markerHeight="10" refX="10" refY="5" viewBox="0 0 14 10" orient="auto" markerUnits="userSpaceOnUse" stroke-dasharray="0,0"><path id="SvgjsPath1516" d="M0,0 L14,5 L0,10 L0,0" fill="#4473c4" stroke="#4473c4" stroke-width="1"></path></marker><marker id="SvgjsMarker1519" markerWidth="16" markerHeight="12" refX="5" refY="6" viewBox="0 0 16 12" orient="auto" markerUnits="userSpaceOnUse" stroke-dasharray="0,0"><path id="SvgjsPath1520" d="M16,0 L0,6 L16,12 L16,0" fill="#323232" stroke="#323232" stroke-width="1"></path></marker><marker id="SvgjsMarker1521" markerWidth="16" markerHeight="12" refX="11" refY="6" viewBox="0 0 16 12" orient="auto" markerUnits="userSpaceOnUse" stroke-dasharray="0,0"><path id="SvgjsPath1522" d="M0,0 L16,6 L0,12 L0,0" fill="#323232" stroke="#323232" stroke-width="1"></path></marker><marker id="SvgjsMarker1525" markerWidth="14" markerHeight="10" refX="4" refY="5" viewBox="0 0 14 10" orient="auto" markerUnits="userSpaceOnUse" stroke-dasharray="0,0"><path id="SvgjsPath1526" d="M14,0 L0,5 L14,10 L14,0" fill="#323232" stroke="#323232" stroke-width="1"></path></marker><marker id="SvgjsMarker1527" markerWidth="14" markerHeight="10" refX="10" refY="5" viewBox="0 0 14 10" orient="auto" markerUnits="userSpaceOnUse" stroke-dasharray="0,0"><path id="SvgjsPath1528" d="M0,0 L14,5 L0,10 L0,0" fill="#323232" stroke="#323232" stroke-width="1"></path></marker><pattern id="SvgjsPattern1538" x="0" y="0" width="303" height="21" patternUnits="userSpaceOnUse"><image id="SvgjsImage1539" xlink:href="http://cdn.processon.com/6382e851e0b34d37c46db600?e=1669527138&amp;token=trhI0BY8QfVrIGn9nENop6JAc6l5nZuxhjQ62UfM:9nrnibRX6m6yaQmcbem000j6ZHQ=" width="346" height="379" preserveAspectRatio="none" crossOrigin="anonymous" x="0" y="-121"></image></pattern><marker id="SvgjsMarker1542" markerWidth="14" markerHeight="10" refX="10" refY="5" viewBox="0 0 14 10" orient="auto" markerUnits="userSpaceOnUse" stroke-dasharray="0,0"><path id="SvgjsPath1543" d="M0,0 L14,5 L0,10 L0,0" fill="#323232" stroke="#323232" stroke-width="1"></path></marker><marker id="SvgjsMarker1546" markerWidth="14" markerHeight="10" refX="10" refY="5" viewBox="0 0 14 10" orient="auto" markerUnits="userSpaceOnUse" stroke-dasharray="0,0"><path id="SvgjsPath1547" d="M0,0 L14,5 L0,10 L0,0" fill="#323232" stroke="#323232" stroke-width="1"></path></marker><pattern id="SvgjsPattern1552" x="0" y="0" width="303" height="21" patternUnits="userSpaceOnUse"><image id="SvgjsImage1553" xlink:href="http://cdn.processon.com/6382e851e0b34d37c46db600?e=1669527138&amp;token=trhI0BY8QfVrIGn9nENop6JAc6l5nZuxhjQ62UfM:9nrnibRX6m6yaQmcbem000j6ZHQ=" width="346" height="379" preserveAspectRatio="none" crossOrigin="anonymous" x="0" y="-226"></image></pattern><pattern id="SvgjsPattern1560" x="0" y="0" width="173" height="65.50000000000006" patternUnits="userSpaceOnUse"><image id="SvgjsImage1561" xlink:href="https://cdn.processon.com/6381ef74e401fd60d4dfd188?e=1669463428&amp;token=trhI0BY8QfVrIGn9nENop6JAc6l5nZuxhjQ62UfM:sBsahps8CWwCA7RIypuCG_KcC5I=" width="173" height="65.50000000000006" preserveAspectRatio="none" crossOrigin="anonymous" x="0" y="0"></image></pattern><marker id="SvgjsMarker1580" markerWidth="16" markerHeight="12" refX="5" refY="6" viewBox="0 0 16 12" orient="auto" markerUnits="userSpaceOnUse" stroke-dasharray="0,0"><path id="SvgjsPath1581" d="M16,0 L0,6 L16,12 L16,0" fill="#4473c4" stroke="#4473c4" stroke-width="1"></path></marker><marker id="SvgjsMarker1582" markerWidth="16" markerHeight="12" refX="11" refY="6" viewBox="0 0 16 12" orient="auto" markerUnits="userSpaceOnUse" stroke-dasharray="0,0"><path id="SvgjsPath1583" d="M0,0 L16,6 L0,12 L0,0" fill="#4473c4" stroke="#4473c4" stroke-width="1"></path></marker><pattern id="SvgjsPattern1588" x="0" y="0" width="153" height="37" patternUnits="userSpaceOnUse"><image id="SvgjsImage1589" xlink:href="http://cdn.processon.com/6382e851e0b34d37c46db600?e=1669527138&amp;token=trhI0BY8QfVrIGn9nENop6JAc6l5nZuxhjQ62UfM:9nrnibRX6m6yaQmcbem000j6ZHQ=" width="346" height="379" preserveAspectRatio="none" crossOrigin="anonymous" x="0" y="-21"></image></pattern><pattern id="SvgjsPattern1594" x="0" y="0" width="120" height="24" patternUnits="userSpaceOnUse"><image id="SvgjsImage1595" xlink:href="http://cdn.processon.com/6382e851e0b34d37c46db600?e=1669527138&amp;token=trhI0BY8QfVrIGn9nENop6JAc6l5nZuxhjQ62UfM:9nrnibRX6m6yaQmcbem000j6ZHQ=" width="346" height="379" preserveAspectRatio="none" crossOrigin="anonymous" x="0" y="-334"></image></pattern><pattern id="SvgjsPattern1600" x="0" y="0" width="120" height="24" patternUnits="userSpaceOnUse"><image id="SvgjsImage1601" xlink:href="http://cdn.processon.com/6382e851e0b34d37c46db600?e=1669527138&amp;token=trhI0BY8QfVrIGn9nENop6JAc6l5nZuxhjQ62UfM:9nrnibRX6m6yaQmcbem000j6ZHQ=" width="346" height="379" preserveAspectRatio="none" crossOrigin="anonymous" x="0" y="-247"></image></pattern><pattern id="SvgjsPattern1604" x="0" y="0" width="35.71428571428578" height="39" patternUnits="userSpaceOnUse"><image id="SvgjsImage1605" xlink:href="https://iconsapi.com/5ee73ec8e4b01754b3cb7cda.svg" width="35.71428571428578" height="39" preserveAspectRatio="none" crossOrigin="anonymous" x="0" y="0"></image></pattern><marker id="SvgjsMarker1608" markerWidth="14" markerHeight="10" refX="10" refY="5" viewBox="0 0 14 10" orient="auto" markerUnits="userSpaceOnUse" stroke-dasharray="0,0"><path id="SvgjsPath1609" d="M0,0 L14,5 L0,10 L0,0" fill="#4473c4" stroke="#4473c4" stroke-width="1"></path></marker><marker id="SvgjsMarker1612" markerWidth="14" markerHeight="10" refX="10" refY="5" viewBox="0 0 14 10" orient="auto" markerUnits="userSpaceOnUse" stroke-dasharray="0,0"><path id="SvgjsPath1613" d="M0,0 L14,5 L0,10 L0,0" fill="#fc8f47" stroke="#fc8f47" stroke-width="1"></path></marker><pattern id="SvgjsPattern1616" x="0" y="0" width="60.042683609262895" height="60.42857142857146" patternUnits="userSpaceOnUse"><image id="SvgjsImage1617" xlink:href="https://cdn.processon.com/6382e67c7d9c080825a674c0?e=1669526668&amp;token=trhI0BY8QfVrIGn9nENop6JAc6l5nZuxhjQ62UfM:b8ZIV2jJ9_zWZQm0eatadUTggVA=" width="60.042683609262895" height="60.42857142857146" preserveAspectRatio="none" crossOrigin="anonymous" x="0" y="0"></image></pattern></defs><g id="SvgjsG1314" transform="translate(47.87423058078707,236.5)"><path id="SvgjsPath1315" d="M 0 0L 229 0L 229 144L 0 144Z" stroke="rgba(50,50,50,1)" stroke-width="2" fill-opacity="1" fill="#ffffff"></path><g id="SvgjsG1316"><text id="SvgjsText1317" font-family="微软雅黑" text-anchor="middle" font-size="13px" width="209px" fill="#323232" font-weight="400" align="middle" lineHeight="125%" anchor="middle" family="微软雅黑" size="13px" weight="400" font-style="" opacity="1" y="61.375" transform="rotate(0)"></text></g></g><g id="SvgjsG1318" transform="translate(67.48039496434876,241)"><path id="SvgjsPath1319" d="M 0 0L 188 0L 188 135L 0 135Z" stroke="none" fill="url(#SvgjsPattern1320)" opacity="1"></path></g><g id="SvgjsG1322" transform="translate(343.7664464547071,469.3218882380637)"><path id="SvgjsPath1323" d="M 0 0L 139 0L 139 27L 0 27Z" stroke="none" fill="none"></path><g id="SvgjsG1324"><text id="SvgjsText1325" font-family="微软雅黑" text-anchor="middle" font-size="13px" width="139px" fill="#323232" font-weight="700" align="middle" lineHeight="125%" anchor="middle" family="微软雅黑" size="13px" weight="700" font-style="" opacity="1" y="2.875" transform="rotate(0)"><tspan id="SvgjsTspan1326" dy="16" x="69.5"><tspan id="SvgjsTspan1327" style="text-decoration:;">t = 0：Initial State</tspan></tspan></text></g></g><g id="SvgjsG1328" transform="translate(338.78121185302734,112.5)"><path id="SvgjsPath1329" d="M 0 0L 229 0L 229 144L 0 144Z" stroke="rgba(50,50,50,1)" stroke-width="2" fill-opacity="1" fill="#ffffff"></path><g id="SvgjsG1330"><text id="SvgjsText1331" font-family="微软雅黑" text-anchor="middle" font-size="13px" width="209px" fill="#323232" font-weight="400" align="middle" lineHeight="125%" anchor="middle" family="微软雅黑" size="13px" weight="400" font-style="" opacity="1" y="61.375" transform="rotate(0)"></text></g></g><g id="SvgjsG1332" transform="translate(359.28121185302734,117)"><path id="SvgjsPath1333" d="M 0 0L 188 0L 188 135L 0 135Z" stroke="none" fill="url(#SvgjsPattern1334)" opacity="1"></path></g><g id="SvgjsG1336" transform="translate(353.25285312647,256)"><path id="SvgjsPath1337" d="M 0 0L 196 0L 196 45L 0 45Z" stroke="none" fill="none"></path><g id="SvgjsG1338"><rect id="SvgjsRect1339" width="196" height="21" transform="translate(0,12)" fill="url(#SvgjsPattern1340)"></rect></g></g><g id="SvgjsG1342" transform="translate(338.78121185302734,362.3648106427663)"><path id="SvgjsPath1343" d="M 0 0L 229 0L 229 144L 0 144Z" stroke="rgba(50,50,50,1)" stroke-width="2" fill-opacity="1" fill="#ffffff"></path><g id="SvgjsG1344"><text id="SvgjsText1345" font-family="微软雅黑" text-anchor="middle" font-size="13px" width="209px" fill="#323232" font-weight="400" align="middle" lineHeight="125%" anchor="middle" family="微软雅黑" size="13px" weight="400" font-style="" opacity="1" y="61.375" transform="rotate(0)"></text></g></g><g id="SvgjsG1346" transform="translate(383.7664464547071,376)"><path id="SvgjsPath1347" d="M 0 0L 131 0L 131 119L 0 119Z" stroke="none" fill="url(#SvgjsPattern1348)" opacity="1"></path></g><g id="SvgjsG1350" transform="translate(360.2244943999126,506)"><path id="SvgjsPath1351" d="M 0 0L 196 0L 196 45L 0 45Z" stroke="none" fill="none"></path><g id="SvgjsG1352"><rect id="SvgjsRect1353" width="196" height="21" transform="translate(0,12)" fill="url(#SvgjsPattern1354)"></rect></g></g><g id="SvgjsG1356"><path id="SvgjsPath1357" d="M277.32090717031144 307.6053045074603L337.17317613073976 187.72090377314305" stroke="#323232" stroke-width="2" fill="none" marker-end="url(#SvgjsMarker1358)"></path></g><g id="SvgjsG1360"><path id="SvgjsPath1361" d="M277.315586143059 309.397332306145L337.1923318288482 431.1344143406442" stroke="#323232" stroke-width="2" fill="none" marker-end="url(#SvgjsMarker1362)"></path></g><g id="SvgjsG1364" transform="translate(848.7812118530273,362.3648106427663)"><path id="SvgjsPath1365" d="M 0 0L 229 0L 229 144L 0 144Z" stroke="rgba(50,50,50,1)" stroke-width="2" fill-opacity="1" fill="#ffffff"></path><g id="SvgjsG1366"><text id="SvgjsText1367" font-family="微软雅黑" text-anchor="middle" font-size="13px" width="209px" fill="#323232" font-weight="400" align="middle" lineHeight="125%" anchor="middle" family="微软雅黑" size="13px" weight="400" font-style="" opacity="1" y="61.375" transform="rotate(0)"></text></g></g><g id="SvgjsG1368" transform="translate(865.4712701736555,368)"><path id="SvgjsPath1369" d="M 0 0L 188 0L 188 135L 0 135Z" stroke="none" fill="url(#SvgjsPattern1370)" opacity="1"></path></g><g id="SvgjsG1372" transform="translate(829.2812016805049,506)"><path id="SvgjsPath1373" d="M 0 0L 272 0L 272 45L 0 45Z" stroke="none" fill="none"></path><g id="SvgjsG1374"><rect id="SvgjsRect1375" width="272" height="21" transform="translate(0,12)" fill="url(#SvgjsPattern1376)"></rect></g></g><g id="SvgjsG1378"><path id="SvgjsPath1379" d="M568.7812118530273 434.3648106427663L845.1812118530274 434.3648106427663" stroke="#fc8f47" stroke-width="2" fill="none" marker-end="url(#SvgjsMarker1380)"></path></g><g id="SvgjsG1382" transform="translate(604.2392496257105,217.5886899637049)"><path id="SvgjsPath1383" d="M 0 0L 139 0L 139 27L 0 27Z" stroke="none" fill="none"></path><g id="SvgjsG1384"><text id="SvgjsText1385" font-family="微软雅黑" text-anchor="middle" font-size="13px" width="139px" fill="#323232" font-weight="700" align="middle" lineHeight="125%" anchor="middle" family="微软雅黑" size="13px" weight="700" font-style="" opacity="1" y="2.875" transform="rotate(0)"><tspan id="SvgjsTspan1386" dy="16" x="69.5"><tspan id="SvgjsTspan1387" style="text-decoration:;">t = 0：Initial State</tspan></tspan></text></g></g><g id="SvgjsG1388" transform="translate(595.7812118530273,112.5)"><path id="SvgjsPath1389" d="M 0 0L 229 0L 229 144L 0 144Z" stroke="rgba(50,50,50,1)" stroke-width="2" fill-opacity="1" fill="#ffffff"></path><g id="SvgjsG1390"><text id="SvgjsText1391" font-family="微软雅黑" text-anchor="middle" font-size="13px" width="209px" fill="#323232" font-weight="400" align="middle" lineHeight="125%" anchor="middle" family="微软雅黑" size="13px" weight="400" font-style="" opacity="1" y="61.375" transform="rotate(0)"></text></g></g><g id="SvgjsG1392" transform="translate(644.2392496257105,126)"><path id="SvgjsPath1393" d="M 0 0L 131 0L 131 119L 0 119Z" stroke="none" fill="url(#SvgjsPattern1394)" opacity="1"></path></g><g id="SvgjsG1396" transform="translate(591.7596345318052,256)"><path id="SvgjsPath1397" d="M 0 0L 236 0L 236 45L 0 45Z" stroke="none" fill="none"></path><g id="SvgjsG1398"><rect id="SvgjsRect1399" width="236" height="21" transform="translate(0,12)" fill="url(#SvgjsPattern1400)"></rect></g></g><g id="SvgjsG1402" transform="translate(25.010345458984375,368)"><path id="SvgjsPath1403" d="M 0 0L 272 0L 272 45L 0 45Z" stroke="none" fill="none"></path><g id="SvgjsG1404"><rect id="SvgjsRect1405" width="272" height="21" transform="translate(0,12)" fill="url(#SvgjsPattern1406)"></rect></g></g><g id="SvgjsG1408" transform="translate(1101.2812016805046,256)"><path id="SvgjsPath1409" d="M 0 0L 345.6926701533878 0L 345.6926701533878 45L 0 45Z" stroke="none" fill="none"></path><g id="SvgjsG1410"><rect id="SvgjsRect1411" width="346" height="21" transform="translate(0,12)" fill="url(#SvgjsPattern1412)"></rect></g></g><g id="SvgjsG1414"><path id="SvgjsPath1415" d="M1078.781211588255 434.3655383409697L1176.3399607401032 434.43653168625093" stroke="#fc8f47" stroke-width="2" fill="none" marker-end="url(#SvgjsMarker1416)"></path></g><g id="SvgjsG1418"><path id="SvgjsPath1419" d="M143.78121185302734 594.2500000000001L963.245490301226 594.2500000000001L963.245490301226 594.2500000000001L1782.7097687494247 594.2500000000001" stroke="#323232" stroke-width="2" fill="none" marker-end="url(#SvgjsMarker1420)"></path></g><g id="SvgjsG1422"><path id="SvgjsPath1423" d="M161.01034545898438 414L161.01034545898438 596" stroke-dasharray="8,5" stroke="#fc8f47" stroke-width="3" fill="none"></path></g><g id="SvgjsG1424" transform="translate(75.78121185302734,618)"><path id="SvgjsPath1425" d="M 0 0L 173 0L 173 39L 0 39Z" stroke="none" fill="none"></path><g id="SvgjsG1426"><rect id="SvgjsRect1427" width="173" height="21" transform="translate(0,9)" fill="url(#SvgjsPattern1428)"></rect></g></g><g id="SvgjsG1430" transform="translate(112.51034545898438,597)"><path id="SvgjsPath1431" d="M 0 0L 97 0L 97 27L 0 27Z" stroke="none" fill="none"></path><g id="SvgjsG1432"><text id="SvgjsText1433" font-family="微软雅黑" text-anchor="middle" font-size="13px" width="97px" fill="#323232" font-weight="700" align="middle" lineHeight="125%" anchor="middle" family="微软雅黑" size="13px" weight="700" font-style="" opacity="1" y="2.875" transform="rotate(0)"><tspan id="SvgjsTspan1434" dy="16" x="48.5"><tspan id="SvgjsTspan1435" style="text-decoration:;">t = 0</tspan></tspan></text></g></g><g id="SvgjsG1436"><path id="SvgjsPath1437" d="M568.7812118530273 184.5L592.1812118530274 184.49999999999997" stroke="#4473c4" stroke-width="2" fill="none" marker-end="url(#SvgjsMarker1438)"></path></g><g id="SvgjsG1440"><path id="SvgjsPath1441" d="M807.6620015038357 435.8442466653527L807.6620015038357 513.6359478709928L807.6620015038357 513.6359478709928L807.6620015038357 595" stroke-dasharray="8,5" stroke="#fc8f47" stroke-width="3" fill="none"></path></g><g id="SvgjsG1442" transform="translate(722.7812118530273,618)"><path id="SvgjsPath1443" d="M 0 0L 173 0L 173 39L 0 39Z" stroke="none" fill="none"></path><g id="SvgjsG1444"><rect id="SvgjsRect1445" width="173" height="21" transform="translate(0,9)" fill="url(#SvgjsPattern1446)"></rect></g></g><g id="SvgjsG1448" transform="translate(739.7812118530273,597)"><path id="SvgjsPath1449" d="M 0 0L 139 0L 139 27L 0 27Z" stroke="none" fill="none"></path><g id="SvgjsG1450"><rect id="SvgjsRect1451" width="139" height="21" transform="translate(0,3)" fill="url(#SvgjsPattern1452)"></rect></g></g><g id="SvgjsG1454"><path id="SvgjsPath1455" d="M1099.2812118530273 181.51679536781225L1099.2812118530273 386.25839768390614L1099.2812118530273 386.25839768390614L1099.2812118530273 590" stroke-dasharray="8,5" stroke="#4473c4" stroke-width="3" fill="none"></path></g><g id="SvgjsG1456" transform="translate(1001.2812118530273,615)"><path id="SvgjsPath1457" d="M 0 0L 196 0L 196 45L 0 45Z" stroke="none" fill="none"></path><g id="SvgjsG1458"><rect id="SvgjsRect1459" width="196" height="21" transform="translate(0,12)" fill="url(#SvgjsPattern1460)"></rect></g></g><g id="SvgjsG1462" transform="translate(997.9028636088808,591)"><path id="SvgjsPath1463" d="M 0 0L 202.75669648829307 0L 202.75669648829307 39L 0 39Z" stroke="none" fill="none"></path><g id="SvgjsG1464"><rect id="SvgjsRect1465" width="203" height="21" transform="translate(0,9)" fill="url(#SvgjsPattern1466)"></rect></g></g><g id="SvgjsG1468" transform="translate(37.87423058078696,570)"><path id="SvgjsPath1469" d="M 0 0L 120 0L 120 45L 0 45Z" stroke="none" fill="none"></path><g id="SvgjsG1470"><text id="SvgjsText1471" font-family="微软雅黑" text-anchor="middle" font-size="13px" width="120px" fill="#323232" font-weight="700" align="middle" lineHeight="125%" anchor="middle" family="微软雅黑" size="13px" weight="700" font-style="" opacity="1" y="11.875" transform="rotate(0)"><tspan id="SvgjsTspan1472" dy="16" x="60"><tspan id="SvgjsTspan1473" style="text-decoration:;">time line</tspan></tspan></text></g></g><g id="SvgjsG1474" transform="translate(1160.333795403361,112.5)"><path id="SvgjsPath1475" d="M 0 0L 229 0L 229 144L 0 144Z" stroke="rgba(50,50,50,1)" stroke-width="2" fill-opacity="1" fill="#ffffff"></path><g id="SvgjsG1476"><text id="SvgjsText1477" font-family="微软雅黑" text-anchor="middle" font-size="13px" width="209px" fill="#323232" font-weight="400" align="middle" lineHeight="125%" anchor="middle" family="微软雅黑" size="13px" weight="400" font-style="" opacity="1" y="61.375" transform="rotate(0)"></text></g></g><g id="SvgjsG1478" transform="translate(1179.9399597869226,117)"><path id="SvgjsPath1479" d="M 0 0L 188 0L 188 135L 0 135Z" stroke="none" fill="url(#SvgjsPattern1480)" opacity="1"></path></g><g id="SvgjsG1482" transform="translate(1179.9399597869226,407.43915139978316)"><path id="SvgjsPath1483" d="M 0 0L 139 0L 139 54L 0 54Z" stroke="none" fill="none"></path><g id="SvgjsG1484"><text id="SvgjsText1485" font-family="微软雅黑" text-anchor="middle" font-size="13px" width="139px" fill="#323232" font-weight="700" align="middle" lineHeight="125%" anchor="middle" family="微软雅黑" size="13px" weight="700" font-style="" opacity="1" y="16.375" transform="rotate(0)"><tspan id="SvgjsTspan1486" dy="16" x="69.5"><tspan id="SvgjsTspan1487" style="text-decoration:;">……</tspan></tspan></text></g></g><g id="SvgjsG1488"><path id="SvgjsPath1489" d="M452.28121185302734 554.6L452.28121185302734 571.4166679382324L452.28121185302734 571.4166679382324L452.28121185302734 591.833335876465" stroke-dasharray="8,5" stroke="#323232" stroke-width="2" fill="none" marker-start="url(#SvgjsMarker1490)" marker-end="url(#SvgjsMarker1492)"></path></g><g id="SvgjsG1494"><path id="SvgjsPath1495" d="M709.7182735983133 305.9L709.7182735983133 446.83333333333337L709.7182735983133 446.83333333333337L709.7182735983133 592.1666666666667" stroke-dasharray="8,5" stroke="#323232" stroke-width="3" fill="none" marker-start="url(#SvgjsMarker1496)" marker-end="url(#SvgjsMarker1498)"></path></g><g id="SvgjsG1500" transform="matrix(-1.8369701987210297e-16,-1,1,-1.8369701987210297e-16,453.5156078338623,694.2447681427002)"><path id="SvgjsPath1501" d="M 97 0Q 88 0 88 9L 88 119.25520515441895Q 88 128.25520515441895 75 128.25520515441895Q 88 128.25520515441895 88 137.25520515441895L 88 247.5104103088379Q 88 256.5104103088379 97 256.5104103088379" stroke="rgba(50,50,50,1)" stroke-width="2" fill="none"></path><path id="SvgjsPath1502" d="M 0 0L 97 0L 97 256.5104103088379L 0 256.5104103088379Z" stroke="none" fill="none"></path><g id="SvgjsG1503"><text id="SvgjsText1504" font-family="微软雅黑" text-anchor="end" font-size="13px" width="70px" fill="#323232" font-weight="400" align="middle" lineHeight="125%" anchor="end" family="微软雅黑" size="13px" weight="400" font-style="" opacity="1" y="117.63020515441895" transform="rotate(0)"><tspan id="SvgjsTspan1505" dy="16" x="70"><tspan id="SvgjsTspan1506" style="text-decoration:;"> </tspan></tspan></text></g></g><g id="SvgjsG1507" transform="translate(465.05002086362697,615)"><path id="SvgjsPath1508" d="M 0 0L 236 0L 236 45L 0 45Z" stroke="none" fill="none"></path><g id="SvgjsG1509"><rect id="SvgjsRect1510" width="236" height="21" transform="translate(0,12)" fill="url(#SvgjsPattern1511)"></rect></g></g><g id="SvgjsG1513"><path id="SvgjsPath1514" d="M825.7812118530273 184.5L1156.733795403361 184.5" stroke="#4473c4" stroke-width="2" fill="none" marker-end="url(#SvgjsMarker1515)"></path></g><g id="SvgjsG1517"><path id="SvgjsPath1518" d="M1274.7058940312236 305.9L1274.7058940312236 482.2854175183419L1274.7058940312236 482.2854175183419L1274.7058940312236 663.0708350366838" stroke-dasharray="8,5" stroke="#323232" stroke-width="3" fill="none" marker-start="url(#SvgjsMarker1519)" marker-end="url(#SvgjsMarker1521)"></path></g><g id="SvgjsG1523"><path id="SvgjsPath1524" d="M965.073161364694 554.6L965.073161364694 608.1852799162357L965.073161364694 608.1852799162357L965.073161364694 663.0708350366838" stroke-dasharray="8,5" stroke="#323232" stroke-width="2" fill="none" marker-start="url(#SvgjsMarker1525)" marker-end="url(#SvgjsMarker1527)"></path></g><g id="SvgjsG1529" transform="matrix(-1.8369701987210297e-16,-1,1,-1.8369701987210297e-16,966.222182591756,761.2847143809003)"><path id="SvgjsPath1530" d="M 97 0Q 88 0 88 9L 88 143.3663183848065Q 88 152.3663183848065 75 152.3663183848065Q 88 152.3663183848065 88 161.3663183848065L 88 295.732636769613Q 88 304.732636769613 97 304.732636769613" stroke="rgba(50,50,50,1)" stroke-width="2" fill="none"></path><path id="SvgjsPath1531" d="M 0 0L 97 0L 97 304.732636769613L 0 304.732636769613Z" stroke="none" fill="none"></path><g id="SvgjsG1532"><text id="SvgjsText1533" font-family="微软雅黑" text-anchor="end" font-size="13px" width="70px" fill="#323232" font-weight="400" align="middle" lineHeight="125%" anchor="end" family="微软雅黑" size="13px" weight="400" font-style="" opacity="1" y="141.7413183848065" transform="rotate(0)"></text></g></g><g id="SvgjsG1534" transform="translate(963.3579267408759,685.0265505050443)"><path id="SvgjsPath1535" d="M 0 0L 303 0L 303 45L 0 45Z" stroke="none" fill="none"></path><g id="SvgjsG1536"><rect id="SvgjsRect1537" width="303" height="21" transform="translate(0,12)" fill="url(#SvgjsPattern1538)"></rect></g></g><g id="SvgjsG1540"><path id="SvgjsPath1541" d="M1389.873592967821 185.34179486182973L1472.6762384570218 314.469538497413" stroke="#323232" stroke-width="2" fill="none" marker-end="url(#SvgjsMarker1542)"></path></g><g id="SvgjsG1544"><path id="SvgjsPath1545" d="M1319.7395170859227 433.8385615850045L1471.741103412678 319.66212333320317" stroke="#323232" stroke-width="2" fill="none" marker-end="url(#SvgjsMarker1546)"></path></g><g id="SvgjsG1548" transform="translate(1438.4456845567843,385)"><path id="SvgjsPath1549" d="M 0 0L 303 0L 303 39L 0 39Z" stroke="none" fill="none"></path><g id="SvgjsG1550"><rect id="SvgjsRect1551" width="303" height="21" transform="translate(0,9)" fill="url(#SvgjsPattern1552)"></rect></g></g><g id="SvgjsG1554" transform="translate(1474.619509689078,245.5)"><path id="SvgjsPath1555" d="M 0 0L 229 0L 229 144L 0 144Z" stroke="rgba(50,50,50,1)" stroke-width="2" fill-opacity="1" fill="#ffffff"></path><g id="SvgjsG1556"><text id="SvgjsText1557" font-family="微软雅黑" text-anchor="middle" font-size="13px" width="209px" fill="#323232" font-weight="400" align="middle" lineHeight="125%" anchor="middle" family="微软雅黑" size="13px" weight="400" font-style="" opacity="1" y="61.375" transform="rotate(0)"></text></g></g><g id="SvgjsG1558" transform="translate(1504.7812118530273,284.74999999999994)"><path id="SvgjsPath1559" d="M 0 0L 173 0L 173 65.50000000000006L 0 65.50000000000006Z" stroke="none" fill="url(#SvgjsPattern1560)" opacity="1"></path></g><g id="SvgjsG1562"><path id="SvgjsPath1563" d="M1589.9456845567838 425L1589.9456845567838 506.27318892268454L1589.9456845567838 506.27318892268454L1589.9456845567838 589.0714285714287" stroke-dasharray="8,5" stroke="#4473c4" stroke-width="3" fill="none"></path></g><g id="SvgjsG1564" transform="translate(1459.4700407547987,610.5)"><path id="SvgjsPath1565" d="M 0 0L 263.62234219645734 0L 263.62234219645734 54L 0 54Z" stroke="none" fill="none"></path><g id="SvgjsG1566"><text id="SvgjsText1567" font-family="微软雅黑" text-anchor="middle" font-size="13px" width="264px" fill="#4473c4" font-weight="700" align="middle" lineHeight="125%" anchor="middle" family="微软雅黑" size="13px" weight="700" font-style="" opacity="1" y="7.875" transform="rotate(0)"><tspan id="SvgjsTspan1568" dy="16" x="132"><tspan id="SvgjsTspan1569" style="text-decoration:;">服务器根据某用户请求进行了同步，u2发现由</tspan></tspan><tspan id="SvgjsTspan1570" dy="16" x="132"><tspan id="SvgjsTspan1571" style="text-decoration:;">于网络延时出现短暂球瞬移</tspan></tspan></text></g></g><g id="SvgjsG1572" transform="translate(1520.445684556784,597)"><path id="SvgjsPath1573" d="M 0 0L 139 0L 139 27L 0 27Z" stroke="none" fill="none"></path><g id="SvgjsG1574"><text id="SvgjsText1575" font-family="微软雅黑" text-anchor="middle" font-size="13px" width="139px" fill="#323232" font-weight="700" align="middle" lineHeight="125%" anchor="middle" family="微软雅黑" size="13px" weight="700" font-style="" opacity="1" y="2.875" transform="rotate(0)"><tspan id="SvgjsTspan1576" dy="16" x="69.5"><tspan id="SvgjsTspan1577" style="text-decoration:;">some time later</tspan></tspan></text></g></g><g id="SvgjsG1578"><path id="SvgjsPath1579" d="M1418.900274004257 74.7857142857143L1418.900274004257 333.3571428571428L1418.900274004257 333.3571428571428L1418.900274004257 591.9285714285712" stroke-dasharray="8,5" stroke="#4473c4" stroke-width="3" fill="none" marker-start="url(#SvgjsMarker1580)" marker-end="url(#SvgjsMarker1582)"></path></g><g id="SvgjsG1584" transform="translate(1343.1859882899696,25)"><path id="SvgjsPath1585" d="M 0 0L 152.8571428571429 0L 152.8571428571429 45L 0 45Z" stroke="none" fill="none"></path><g id="SvgjsG1586"><rect id="SvgjsRect1587" width="153" height="37" transform="translate(0,4)" fill="url(#SvgjsPattern1588)"></rect></g></g><g id="SvgjsG1590" transform="translate(150.28121185302734,164.5)"><path id="SvgjsPath1591" d="M 0 0L 120 0L 120 45L 0 45Z" stroke="none" fill="none"></path><g id="SvgjsG1592"><rect id="SvgjsRect1593" width="120" height="24" transform="translate(0,10.5)" fill="url(#SvgjsPattern1594)"></rect></g></g><g id="SvgjsG1596" transform="translate(150.28121185302734,414.3648106427663)"><path id="SvgjsPath1597" d="M 0 0L 120 0L 120 45L 0 45Z" stroke="none" fill="none"></path><g id="SvgjsG1598"><rect id="SvgjsRect1599" width="120" height="24" transform="translate(0,10.5)" fill="url(#SvgjsPattern1600)"></rect></g></g><g id="SvgjsG1602" transform="translate(1648.0171131282123,28)"><path id="SvgjsPath1603" d="M 0 0L 35.71428571428578 0L 35.71428571428578 39L 0 39Z" stroke="none" fill="url(#SvgjsPattern1604)" opacity="1"></path></g><g id="SvgjsG1606"><path id="SvgjsPath1607" d="M271.28121185302734 184.5L305.59355644330583 184.5L305.59355644330583 184.5L335.1812118530273 184.5" stroke="#4473c4" stroke-width="2" fill="none" marker-end="url(#SvgjsMarker1608)"></path></g><g id="SvgjsG1610"><path id="SvgjsPath1611" d="M271.28121185302734 434.3648106427663L303.51703248974866 434.3648106427663L303.51703248974866 434.3648106427663L335.1812118530273 434.3648106427663" stroke="#fc8f47" stroke-width="2" fill="none" marker-end="url(#SvgjsMarker1612)"></path></g><g id="SvgjsG1614" transform="translate(212.36321742432142,248.28571428571428)"><path id="SvgjsPath1615" d="M 0 0L 60.042683609262895 0L 60.042683609262895 60.42857142857146L 0 60.42857142857146Z" stroke="none" fill="url(#SvgjsPattern1616)" opacity="1"></path></g></svg>